<?xml version="1.0" encoding="UTF-8" standalone="no"?>
<!-- Created with Inkscape (http://www.inkscape.org/) -->

<svg
   xmlns:dc="http://purl.org/dc/elements/1.1/"
   xmlns:cc="http://creativecommons.org/ns#"
   xmlns:rdf="http://www.w3.org/1999/02/22-rdf-syntax-ns#"
   xmlns:svg="http://www.w3.org/2000/svg"
   xmlns="http://www.w3.org/2000/svg"
   xmlns:xlink="http://www.w3.org/1999/xlink"
   xmlns:sodipodi="http://sodipodi.sourceforge.net/DTD/sodipodi-0.dtd"
   xmlns:inkscape="http://www.inkscape.org/namespaces/inkscape"
   id="svg4116"
   version="1.1"
   inkscape:version="0.48.2 r9819"
   width="180"
   height="180"
   xml:space="preserve"
   sodipodi:docname="app.svg"
   inkscape:export-filename="/Users/zak/Projects/PDFReader/PDFReader/app@2x.png"
   inkscape:export-xdpi="71.860558"
   inkscape:export-ydpi="71.860558"><metadata
     id="metadata4122"><rdf:RDF><cc:Work
         rdf:about=""><dc:format>image/svg+xml</dc:format><dc:type
           rdf:resource="http://purl.org/dc/dcmitype/StillImage" /><dc:title></dc:title></cc:Work></rdf:RDF></metadata><defs
     id="defs4120"><clipPath
       clipPathUnits="userSpaceOnUse"
       id="clipPath4130"><path
         d="M 0,144 144,144 144,0 0,0 0,144 z"
         id="path4132" /></clipPath><linearGradient
       x1="0"
       y1="0"
       x2="1"
       y2="0"
       gradientUnits="userSpaceOnUse"
       gradientTransform="matrix(59.332931,-53.999969,-53.999969,-59.332916,84.954102,60.209961)"
       spreadMethod="pad"
       id="linearGradient4150"><stop
         style="stop-opacity:1;stop-color:#666666"
         offset="0"
         id="stop4152" /><stop
         style="stop-opacity:1;stop-color:#ffffff"
         offset="1"
         id="stop4154" /></linearGradient><linearGradient
       x1="0"
       y1="0"
       x2="1"
       y2="0"
       gradientUnits="userSpaceOnUse"
       gradientTransform="matrix(0,144,144,0,72,0)"
       spreadMethod="pad"
       id="linearGradient4170"><stop
         style="stop-opacity:1;stop-color:#0071bc"
         offset="0"
         id="stop4172" /><stop
         style="stop-opacity:1;stop-color:#29abe2"
         offset="1"
         id="stop4174" /></linearGradient><clipPath
       clipPathUnits="userSpaceOnUse"
       id="clipPath4182"><path
         d="M 20,144 C 9,144 0,135 0,124 L 0,124 0,20 C 0,9 9,0 20,0 l 0,0 56.001,0 c 13.083,0 23.58,22.054 28.499,28.5 l 0,0 c 5.5,7.208 12.406,12.561 17.833,9.749 l 0,0 C 130.269,34.137 144,30.75 144,30.75 l 0,0 0,93.25 c 0,11 -9,20 -20,20 l 0,0 -104,0 z"
         id="path4184" /></clipPath><linearGradient
       x1="0"
       y1="0"
       x2="1"
       y2="0"
       gradientUnits="userSpaceOnUse"
       gradientTransform="matrix(-28.831634,61.179382,61.179382,28.831634,101.2998,9.828125)"
       spreadMethod="pad"
       id="linearGradient4194"><stop
         style="stop-opacity:0.50000763;stop-color:#ffffff"
         offset="0"
         id="stop4196" /><stop
         style="stop-opacity:0;stop-color:#ffffff"
         offset="1"
         id="stop4198" /></linearGradient><mask
       maskUnits="userSpaceOnUse"
       x="0"
       y="0"
       width="1"
       height="1"
       id="mask4200"><g
         id="g4202"><g
           id="g4204"><g
             id="g4206"><g
               id="g4208"><path
                 d="m -32768,32767 65535,0 0,-65534 -65535,0 0,65534 z"
                 style="fill:url(#linearGradient4194);stroke:none"
                 id="path4210" /></g></g></g></g></mask><linearGradient
       x1="0"
       y1="0"
       x2="1"
       y2="0"
       gradientUnits="userSpaceOnUse"
       gradientTransform="matrix(-28.831634,61.179382,61.179382,28.831634,101.2998,9.828125)"
       spreadMethod="pad"
       id="linearGradient4216"><stop
         style="stop-opacity:1;stop-color:#000000"
         offset="0"
         id="stop4218" /><stop
         style="stop-opacity:1;stop-color:#000000"
         offset="1"
         id="stop4220" /></linearGradient><linearGradient
       x1="0"
       y1="0"
       x2="1"
       y2="0"
       gradientUnits="userSpaceOnUse"
       gradientTransform="matrix(6.3700714,-24.065002,-24.065002,-6.3700714,105.05566,34.056641)"
       spreadMethod="pad"
       id="linearGradient4236"><stop
         style="stop-opacity:1;stop-color:#ffffff"
         offset="0"
         id="stop4238" /><stop
         style="stop-opacity:1;stop-color:#adadad"
         offset="1"
         id="stop4240" /></linearGradient><linearGradient
       inkscape:collect="always"
       xlink:href="#linearGradient4216"
       id="linearGradient4258"
       gradientUnits="userSpaceOnUse"
       gradientTransform="matrix(-28.831634,61.179382,61.179382,28.831634,101.2998,9.828125)"
       spreadMethod="pad"
       x1="0"
       y1="0"
       x2="1"
       y2="0" /><clipPath
       clipPathUnits="userSpaceOnUse"
       id="clipPath4801"><rect
         ry="3.4142599"
         rx="3.2767997"
         transform="scale(1,-1)"
         y="-106.08076"
         x="-12.574512"
         height="112.50773"
         width="174.36658"
         id="rect4803"
         style="opacity:0.29454543;fill:#f4e3d7;fill-opacity:1;stroke:#cacaca;stroke-width:0.86298609;stroke-miterlimit:4;stroke-opacity:1;stroke-dasharray:none" /></clipPath></defs><sodipodi:namedview
     pagecolor="#ffffff"
     bordercolor="#666666"
     borderopacity="1"
     objecttolerance="10"
     gridtolerance="10"
     guidetolerance="10"
     inkscape:pageopacity="0"
     inkscape:pageshadow="2"
     inkscape:window-width="1280"
     inkscape:window-height="752"
     id="namedview4118"
     showgrid="false"
     inkscape:zoom="2.9886449"
     inkscape:cx="77.845847"
     inkscape:cy="89.825354"
     inkscape:window-x="0"
     inkscape:window-y="0"
     inkscape:window-maximized="0"
     inkscape:current-layer="g4124" /><g
     id="g4124"
     inkscape:groupmode="layer"
     inkscape:label="iPhone4_icon_base_144px_009"
     transform="matrix(1.25,0,0,-1.25,0,180)"><g
   id="g4126"><g
     id="g4128"
     clip-path="url(#clipPath4130)"><g
       id="g4134"
       transform="translate(144,20)"><path
         d="m 0,0 c 0,-11 -9,-20 -20,-20 l -104,0 c -11,0 -20,9 -20,20 l 0,104 c 0,11 9,20 20,20 l 104,0 c 11,0 20,-9 20,-20 L 0,0 z"
         style="fill:#ffffff;fill-opacity:1;fill-rule:nonzero;stroke:none"
         id="path4136" /></g></g></g><g
   id="g4138"><g
     id="g4140"><g
       id="g4146"><g
         id="g4148"><path
           d="M 20,144 C 9,144 0,135 0,124 L 0,124 0,20 C 0,9 9,0 20,0 l 0,0 104,0 c 11,0 20,9 20,20 l 0,0 0,104 c 0,11 -9,20 -20,20 l 0,0 -104,0 z"
           style="fill:url(#linearGradient4150);stroke:none"
           id="path4156" /></g></g></g></g><g
   id="g4158"
   style="fill:#66ff00"><g
     id="g4160"
     style="fill:#66ff00"><g
       id="g4166"
       style="fill:#66ff00"><g
         id="g4168"
         style="fill:#66ff00"><path
           d="M 20,144 C 9,144 0,135 0,124 L 0,124 0,20 C 0,9 9,0 20,0 l 0,0 56.001,0 c 13.083,0 24.001,21.753 28.499,28.5 l 0,0 c 4.666,7 12.708,12.499 17.833,9.749 l 0,0 C 130.346,33.949 144,30.75 144,30.75 l 0,0 0,93.25 c 0,11 -9,20 -20,20 l 0,0 -104,0 z"
           style="fill:#66ff00;stroke:none"
           id="path4176" /></g></g></g></g><g
   id="g4260"
   clip-path="url(#clipPath4801)"
   style="fill:#fff6d5"
   transform="translate(-2.7809951e-7,-0.27943361)"><g
     id="g4262"
     style="fill:#fff6d5"><g
       id="g4264"
       style="fill:#fff6d5"><g
         id="g4266"
         style="fill:#fff6d5"><path
           id="path4268"
           style="fill:#fff6d5;stroke:none"
           d="M 20,144 C 9,144 0,135 0,124 L 0,124 0,20 C 0,9 9,0 20,0 l 0,0 56.001,0 c 13.083,0 24.001,21.753 28.499,28.5 l 0,0 c 4.666,7 12.708,12.499 17.833,9.749 l 0,0 C 130.346,33.949 144,30.75 144,30.75 l 0,0 0,93.25 c 0,11 -9,20 -20,20 l 0,0 -104,0 z"
           inkscape:connector-curvature="0" /></g></g></g></g><g
   id="g4178"
   style="opacity:0.12627986"
   transform="translate(-0.26767998,0)"><g
     id="g4180"
     clip-path="url(#clipPath4182)"><g
       id="g4186"><g
         id="g4188" /><g
         id="g4212"
         mask="url(#mask4200)"><g
           id="g4214"><path
             d="M 20,144 C 9,144 0,135 0,124 L 0,124 0,20 C 0,9 9,0 20,0 l 0,0 56.001,0 c 13.083,0 23.58,22.054 28.499,28.5 l 0,0 c 5.5,7.208 12.406,12.561 17.833,9.749 l 0,0 C 130.269,34.137 144,30.75 144,30.75 l 0,0 0,93.25 c 0,11 -9,20 -20,20 l 0,0 -104,0 z"
             style="fill:url(#linearGradient4258);stroke:none"
             id="path4222"
             inkscape:connector-curvature="0" /></g></g></g></g></g><flowRoot
   xml:space="preserve"
   id="flowRoot4784"
   style="fill:black;stroke:none;stroke-opacity:1;stroke-width:1px;stroke-linejoin:miter;stroke-linecap:butt;fill-opacity:1;font-family:'HG丸ｺﾞｼｯｸM-PRO';font-style:normal;font-weight:normal;font-size:40px;line-height:125%;letter-spacing:0px;word-spacing:0px;-inkscape-font-specification:'HG丸ｺﾞｼｯｸM-PRO';font-stretch:normal;font-variant:normal"><flowRegion
     id="flowRegion4786"><rect
       id="rect4788"
       width="129.58734"
       height="54.489555"
       x="28.991238"
       y="89.88266" /></flowRegion><flowPara
     id="flowPara4790" /></flowRoot><text
   xml:space="preserve"
   style="font-size:42.87525558px;font-style:normal;font-variant:normal;font-weight:normal;font-stretch:normal;line-height:125%;letter-spacing:0px;word-spacing:0px;fill:#000000;fill-opacity:1;stroke:none;font-family:'HG丸ｺﾞｼｯｸM-PRO';-inkscape-font-specification:'HG丸ｺﾞｼｯｸM-PRO'"
   x="14.696694"
   y="-26.387594"
   id="text4792"
   sodipodi:linespacing="125%"
   transform="scale(1,-1)"><tspan
     sodipodi:role="line"
     x="14.696694"
     y="-26.387594"
     id="tspan4796"
     style="font-size:68.60041046px;font-style:normal;font-variant:normal;font-weight:normal;font-stretch:normal;font-family:'HGP創英角ｺﾞｼｯｸUB';-inkscape-font-specification:'HGP創英角ｺﾞｼｯｸUB'">PDF</tspan></text>

<g
   id="g4224"><g
     id="g4226"><g
       id="g4232"><g
         id="g4234"><path
           d="M 104.5,28.5 C 100.094,22.626 90.482,4.024 79.487,0.559 l 0,0 C 96.618,4.735 144,30.75 144,30.75 l 0,0 c 0,0 -13.457,3.297 -21.667,7.499 l 0,0 c -1.021,0.523 -2.092,0.765 -3.195,0.765 l 0,0 C 114.352,39.014 108.97,34.459 104.5,28.5 M 76.001,0 c 1.174,0 2.338,0.197 3.486,0.559 l 0,0 C 78.12,0.225 76.944,0.031 76.001,0"
           style="fill:url(#linearGradient4236);stroke:none"
           id="path4242" /></g></g></g></g></g></svg>