<?xml version="1.0" encoding="UTF-8" standalone="no"?>
<!-- Created with Inkscape (http://www.inkscape.org/) -->

<svg
   xmlns:dc="http://purl.org/dc/elements/1.1/"
   xmlns:cc="http://creativecommons.org/ns#"
   xmlns:rdf="http://www.w3.org/1999/02/22-rdf-syntax-ns#"
   xmlns:svg="http://www.w3.org/2000/svg"
   xmlns="http://www.w3.org/2000/svg"
   xmlns:sodipodi="http://sodipodi.sourceforge.net/DTD/sodipodi-0.dtd"
   xmlns:inkscape="http://www.inkscape.org/namespaces/inkscape"
   width="210mm"
   height="297mm"
   id="svg2"
   version="1.1"
   inkscape:version="0.48.2 r9819"
   sodipodi:docname="delete.svg">
  <defs
     id="defs4" />
  <sodipodi:namedview
     id="base"
     pagecolor="#ffffff"
     bordercolor="#666666"
     borderopacity="1.0"
     inkscape:pageopacity="0.0"
     inkscape:pageshadow="2"
     inkscape:zoom="1"
     inkscape:cx="271.98662"
     inkscape:cy="666.76487"
     inkscape:document-units="px"
     inkscape:current-layer="layer1"
     showgrid="true"
     showguides="false"
     inkscape:window-width="1280"
     inkscape:window-height="752"
     inkscape:window-x="0"
     inkscape:window-y="0"
     inkscape:window-maximized="1">
    <inkscape:grid
       type="xygrid"
       id="grid2987" />
  </sodipodi:namedview>
  <metadata
     id="metadata7">
    <rdf:RDF>
      <cc:Work
         rdf:about="">
        <dc:format>image/svg+xml</dc:format>
        <dc:type
           rdf:resource="http://purl.org/dc/dcmitype/StillImage" />
        <dc:title />
      </cc:Work>
    </rdf:RDF>
  </metadata>
  <g
     inkscape:label="レイヤー 1"
     inkscape:groupmode="layer"
     id="layer1">
    <path
       style="fill:#d40000;fill-opacity:1;opacity:0.75"
       d="M 281.9375 232.0625 C 191.32994 232.0625 117.875 305.51744 117.875 396.125 C 117.875 486.73256 191.32994 560.1875 281.9375 560.1875 C 372.54506 560.1875 446 486.73256 446 396.125 C 446 305.51744 372.54506 232.0625 281.9375 232.0625 z M 207.5 303.375 A 18.332134 18.332134 0 0 1 220.65625 308.90625 L 281.9375 370.1875 L 343.21875 308.90625 A 18.332134 18.332134 0 0 1 355.8125 303.375 A 18.332134 18.332134 0 0 1 369.125 334.84375 L 307.84375 396.125 L 369.125 457.40625 A 18.332134 18.332134 0 1 1 343.21875 483.34375 L 281.9375 422.0625 L 220.65625 483.34375 A 18.340582 18.340582 0 1 1 194.71875 457.40625 L 256 396.125 L 194.71875 334.84375 A 18.332134 18.332134 0 0 1 207.5 303.375 z "
       id="path2985" />
  </g>
</svg>
