<?xml version="1.0" encoding="UTF-8" standalone="no"?>
<!-- Created with Inkscape (http://www.inkscape.org/) -->

<svg
   xmlns:dc="http://purl.org/dc/elements/1.1/"
   xmlns:cc="http://creativecommons.org/ns#"
   xmlns:rdf="http://www.w3.org/1999/02/22-rdf-syntax-ns#"
   xmlns:svg="http://www.w3.org/2000/svg"
   xmlns="http://www.w3.org/2000/svg"
   xmlns:sodipodi="http://sodipodi.sourceforge.net/DTD/sodipodi-0.dtd"
   xmlns:inkscape="http://www.inkscape.org/namespaces/inkscape"
   width="210mm"
   height="297mm"
   id="svg2"
   version="1.1"
   inkscape:version="0.48.2 r9819"
   sodipodi:docname="detail.svg">
  <defs
     id="defs4" />
  <sodipodi:namedview
     id="base"
     pagecolor="#ffffff"
     bordercolor="#666666"
     borderopacity="1.0"
     inkscape:pageopacity="0.0"
     inkscape:pageshadow="2"
     inkscape:zoom="1"
     inkscape:cx="271.98662"
     inkscape:cy="670.2733"
     inkscape:document-units="px"
     inkscape:current-layer="layer1"
     showgrid="true"
     showguides="false"
     inkscape:window-width="1280"
     inkscape:window-height="752"
     inkscape:window-x="0"
     inkscape:window-y="0"
     inkscape:window-maximized="0">
    <inkscape:grid
       type="xygrid"
       id="grid2987" />
  </sodipodi:namedview>
  <metadata
     id="metadata7">
    <rdf:RDF>
      <cc:Work
         rdf:about="">
        <dc:format>image/svg+xml</dc:format>
        <dc:type
           rdf:resource="http://purl.org/dc/dcmitype/StillImage" />
        <dc:title></dc:title>
      </cc:Work>
    </rdf:RDF>
  </metadata>
  <g
     inkscape:label="レイヤー 1"
     inkscape:groupmode="layer"
     id="layer1">
    <path
       style="fill:#0044aa;opacity:0.75"
       d="M 281.9375 232.0625 C 191.32994 232.0625 117.875 305.51744 117.875 396.125 C 117.875 486.73256 191.32994 560.1875 281.9375 560.1875 C 372.54506 560.1875 446 486.73256 446 396.125 C 446 305.51744 372.54506 232.0625 281.9375 232.0625 z M 244.21875 276.9375 A 20.002 20.002 0 0 1 258.5625 283 L 357.5625 381.96875 A 20.002 20.002 0 0 1 357.5625 410.28125 L 258.5625 509.25 A 20.002 20.002 0 1 1 230.28125 480.96875 L 315.125 396.125 L 230.28125 311.28125 A 20.002 20.002 0 0 1 244.21875 276.9375 z "
       id="path2985"
       inkscape:export-filename="/Users/zak/Projects/PDFReader/PDFReader/KLPVEditTag.png"
       inkscape:export-xdpi="4.3885713"
       inkscape:export-ydpi="4.3885713" />
  </g>
</svg>
